Coordinates
version=1
nRows=27
nColumns=38
inDegrees=no

Units are S.I. units (second, meters, Newtons, ...)
If the header above contains a line with 'inDegrees', this indicates whether rotational values are in degrees (yes) or radians (no).

endheader
time	pelvis_tilt	pelvis_list	pelvis_rotation	pelvis_tx	pelvis_ty	pelvis_tz	hip_flexion_r	hip_adduction_r	hip_rotation_r	knee_angle_r	ankle_angle_r	subtalar_angle_r	mtp_angle_r	hip_flexion_l	hip_adduction_l	hip_rotation_l	knee_angle_l	ankle_angle_l	subtalar_angle_l	mtp_angle_l	lumbar_extension	lumbar_bending	lumbar_rotation	arm_flex_r	arm_add_r	arm_rot_r	elbow_flex_r	pro_sup_r	wrist_flex_r	wrist_dev_r	arm_flex_l	arm_add_l	arm_rot_l	elbow_flex_l	pro_sup_l	wrist_flex_l	wrist_dev_l
20	0.112057	1.28731	2.31384	0.150186	0.129302	0.91539	0.608744	-0.340732	-0.206646	0.557291	-0.0216849	0	0	0.0174969	0.0228904	-0.0689364	0.0359942	-0.109381	0	0	-0.714755	0.244262	0.182921	1.5708	-1.15924	1.35202	0.743725	1.49298	0	0	-0.0289765	-0.266008	0.167615	1.10797	1.60456e-05	0	0
20.01	0.107522	1.29151	2.32096	0.149901	0.129203	0.915886	0.601853	-0.340815	-0.211481	0.555492	-0.0212771	0	0	0.0129603	0.0213569	-0.0666163	0.0349948	-0.109774	0	0	-0.713441	0.241916	0.181193	1.5708	-1.16102	1.3883	0.764602	1.38304	0	0	-0.0319288	-0.266678	0.164581	1.11003	1.79814e-05	0	0
20.02	0.10522	1.29514	2.32654	0.14967	0.128786	0.91639	0.595631	-0.34103	-0.216302	0.553181	-0.0221703	0	0	0.0105602	0.0197228	-0.0644458	0.0357209	-0.109335	0	0	-0.711881	0.240756	0.179368	1.5708	-1.16084	1.39928	0.783346	1.33012	0	0	-0.0330379	-0.266462	0.161518	1.10904	1.87006e-05	0	0
20.03	0.185038	1.28018	2.25093	0.152444	0.126232	0.913416	0.63018	-0.330716	-0.205132	0.558542	-0.026567	0	0	0.0543826	0.00892074	-0.0656886	0.0583016	-0.0949904	0	0	-0.686444	0.243073	0.183725	1.5708	-1.15796	1.31678	0.799357	1.36991	0	0	-0.0333073	-0.270423	0.163061	1.10986	1.36552e-05	0	0
20.04	0.183426	1.28322	2.25515	0.152304	0.125529	0.913827	0.625145	-0.331216	-0.208554	0.556729	-0.0263516	0	0	0.0524585	0.00791463	-0.0634873	0.0587195	-0.0945953	0	0	-0.685828	0.241829	0.182402	1.5708	-1.15579	1.29555	0.814288	1.37267	0	0	-0.0339252	-0.270455	0.16203	1.10889	1.26088e-05	0	0
20.05	0.183075	1.28617	2.25772	0.152196	0.124949	0.914201	0.620641	-0.331197	-0.212434	0.554948	-0.026345	0	0	0.0506086	0.00647628	-0.0618617	0.0589102	-0.0943788	0	0	-0.684672	0.240307	0.181472	1.5708	-1.15328	1.27888	0.828376	1.3684	0	0	-0.034612	-0.270383	0.160028	1.10733	1.18748e-05	0	0
20.06	0.183633	1.28925	2.2595	0.152064	0.124379	0.914563	0.615626	-0.330699	-0.215945	0.552523	-0.026745	0	0	0.0487504	0.00470998	-0.0602675	0.0590031	-0.0941125	0	0	-0.683412	0.239078	0.180847	1.5708	-1.15069	1.26171	0.841597	1.36283	0	0	-0.0352325	-0.269978	0.157847	1.10528	1.09703e-05	0	0
20.07	0.183557	1.29258	2.26185	0.1519	0.123853	0.914908	0.610401	-0.33028	-0.219643	0.55021	-0.0270562	0	0	0.0463426	0.00293693	-0.0587577	0.0588164	-0.0936884	0	0	-0.682061	0.237645	0.180131	1.5708	-1.14768	1.24806	0.853615	1.35323	0	0	-0.0360562	-0.269837	0.156292	1.10331	1.01566e-05	0	0
20.08	0.18474	1.29585	2.26204	0.151782	0.123415	0.915182	0.605773	-0.328867	-0.22228	0.547967	-0.0281306	0	0	0.0439298	0.000792352	-0.058326	0.0583724	-0.0931032	0	0	-0.680341	0.235639	0.180337	1.5708	-1.14487	1.23701	0.865572	1.34101	0	0	-0.0369646	-0.26983	0.154995	1.10142	9.56291e-06	0	0
20.09	0.187224	1.29873	2.26173	0.151629	0.122877	0.915458	0.601546	-0.327993	-0.226008	0.545912	-0.0290146	0	0	0.0424779	-0.00130746	-0.0571452	0.0584021	-0.0924853	0	0	-0.678087	0.234126	0.180478	1.5708	-1.14278	1.22375	0.877634	1.32919	0	0	-0.037267	-0.269132	0.152405	1.09836	8.77909e-06	0	0
20.1	0.188679	1.3016	2.26344	0.151417	0.122321	0.915741	0.596634	-0.327978	-0.230913	0.543839	-0.0295506	0	0	0.0411883	-0.00305453	-0.0546677	0.0590572	-0.0920277	0	0	-0.67491	0.232556	0.179314	1.5708	-1.14015	1.21677	0.888241	1.31337	0	0	-0.0375137	-0.268423	0.149092	1.09513	9.31231e-06	0	0
20.11	0.190029	1.30458	2.26566	0.151167	0.121622	0.916088	0.591798	-0.328563	-0.236335	0.541963	-0.0298527	0	0	0.0399656	-0.00460587	-0.0517052	0.0596591	-0.0914465	0	0	-0.672204	0.231262	0.178132	1.5708	-1.13751	1.20898	0.898086	1.29768	0	0	-0.0379637	-0.268085	0.148129	1.09286	8.50076e-06	0	0
20.12	0.105556	1.3227	2.35157	0.148173	0.122164	0.919548	0.552	-0.33973	-0.254693	0.533983	-0.0269127	0	0	-0.00253341	0.00397555	-0.0474903	0.0403218	-0.103442	0	0	-0.692974	0.226862	0.17325	1.5708	-1.13681	1.22086	0.907401	1.28046	0	0	-0.0376511	-0.263805	0.14716	1.0876	9.60598e-06	0	0
20.13	0.204103	1.3055	2.2582	0.150885	0.119111	0.916573	0.588482	-0.328154	-0.244309	0.535393	-0.0317705	0	0	0.0426897	-0.0115754	-0.049065	0.0574058	-0.0900387	0	0	-0.650971	0.231072	0.197118	1.5708	-1.1424	1.10003	0.896714	1.29453	0	0	-0.0124395	-0.269193	0.193046	1.05503	0	0	0
20.14	0.207565	1.30829	2.25765	0.150671	0.118709	0.916808	0.584551	-0.327626	-0.248523	0.534184	-0.0324758	0	0	0.0415445	-0.0138273	-0.0477746	0.0575846	-0.0893204	0	0	-0.64694	0.22833	0.197166	1.56225	-1.13985	1.08458	0.904322	1.29504	0	0	-0.0124919	-0.268511	0.190655	1.05138	0	0	0
20.15	0.20885	1.31173	2.26112	0.150316	0.118075	0.917209	0.578662	-0.328816	-0.255713	0.532699	-0.0334398	0	0	0.0396602	-0.0157619	-0.0437896	0.0575733	-0.089332	0	0	-0.643508	0.226851	0.195367	1.55916	-1.13728	1.08025	0.91123	1.27076	0	0	-0.0125003	-0.267777	0.186877	1.04774	0	0	0
20.16	0.209795	1.31554	2.26451	0.149961	0.117517	0.917654	0.572193	-0.329467	-0.262633	0.530827	-0.0345474	0	0	0.0371092	-0.0178264	-0.0402677	0.0571279	-0.0896154	0	0	-0.640428	0.225171	0.193823	1.55686	-1.13466	1.07776	0.917624	1.24025	0	0	-0.0128883	-0.266921	0.180637	1.04517	0	0	0
20.17	0.211569	1.31899	2.26598	0.14965	0.117114	0.918013	0.566376	-0.328585	-0.26608	0.527898	-0.0343581	0	0	0.0347788	-0.0199834	-0.0387029	0.0566964	-0.0894754	0	0	-0.636726	0.222624	0.192953	1.55359	-1.13171	1.07359	0.923617	1.21031	0	0	-0.0138573	-0.266285	0.174734	1.0437	0	0	0
20.18	0.201011	1.32456	2.27843	0.149687	0.116755	0.918291	0.558816	-0.328198	-0.267962	0.527496	-0.0329329	0	0	0.0288624	-0.0215049	-0.0385869	0.0566504	-0.087738	0	0	-0.65361	0.220596	0.17749	1.5708	-1.11797	1.10267	0.94703	1.18738	0	0	-0.0377673	-0.264933	0.129895	1.06917	0	0	0
20.19	0.207056	1.32975	2.2769	0.149281	0.116144	0.919017	0.551286	-0.326616	-0.274948	0.524425	-0.0344789	0	0	0.0266201	-0.0256019	-0.0353165	0.0571248	-0.0876138	0	0	-0.651531	0.220557	0.176601	1.5708	-1.115	1.10267	0.952523	1.15955	0	0	-0.0390979	-0.262264	0.12049	1.06628	0	0	0
20.2	0.269611	1.31299	2.2005	0.151704	0.113717	0.918552	0.576421	-0.318971	-0.281288	0.503972	-0.0566428	0	0	0.0587651	-0.0262608	-0.0469164	0.0668203	-0.0896027	0	0	-0.631042	0.210135	0.192375	1.5708	-1.11432	1.12628	0.956953	1.12762	0	0	-0.0342779	-0.253056	0.115537	1.05575	0	0	0
20.21	0.27962	1.3139	2.19231	0.151518	0.113527	0.9185	0.575347	-0.317003	-0.281921	0.502502	-0.0571293	0	0	0.0623779	-0.0291746	-0.0517014	0.0718963	-0.0858	0	0	-0.62329	0.205998	0.193808	1.5708	-1.11367	1.12196	0.963121	1.09458	0	0	-0.0342948	-0.252067	0.111986	1.04857	0	0	0
20.22	0.270338	1.31572	2.2049	0.150099	0.113105	0.918613	0.596255	-0.342046	-0.300282	0.568369	-0.0312048	0	0	0.060147	-0.0258961	-0.0554655	0.0745922	-0.0829405	0	0	-0.61633	0.201035	0.191831	1.5708	-1.11376	1.11937	0.969182	1.04143	0	0	-0.0353207	-0.250265	0.108896	1.04089	0	0	0
20.23	0.306708	1.33809	2.17399	0.14979	0.114435	0.921981	0.554283	-0.305578	-0.29074	0.51556	-0.0621012	0	0	0.0487115	-0.0426028	-0.0503351	0.079177	-0.0865464	0	0	-0.622141	0.208445	0.19788	1.5708	-1.11292	1.15107	0.972352	1.01558	0	0	-0.0309808	-0.245338	0.103382	1.03618	4.2415e-06	0	0
20.24	0.305366	1.34797	2.17992	0.149192	0.114295	0.923208	0.537189	-0.300845	-0.296321	0.505637	-0.0637946	0	0	0.0396435	-0.0475225	-0.0469942	0.0779158	-0.0865159	0	0	-0.623799	0.207574	0.198782	1.5708	-1.11384	1.1628	0.977985	0.980175	0	0	-0.0308894	-0.244763	0.0987063	1.0341	5.66686e-06	0	0
20.25	0.299886	1.35484	2.18926	0.148687	0.114141	0.924052	0.525265	-0.299245	-0.301871	0.500518	-0.0631185	0	0	0.0328871	-0.0498792	-0.0441211	0.077115	-0.08678	0	0	-0.622723	0.204146	0.198404	1.5708	-1.11349	1.16836	0.982481	0.936141	0	0	-0.031492	-0.244747	0.0932396	1.03197	7.91319e-06	0	0
20.26	0.29276	1.36216	2.19987	0.148149	0.114138	0.92492	0.513055	-0.297849	-0.309187	0.496607	-0.0646804	0	0	0.0253434	-0.0524343	-0.0424567	0.0762934	-0.0871018	0	0	-0.62163	0.200491	0.198279	1.5708	-1.11268	1.17499	0.985838	0.893051	0	0	-0.0323493	-0.245303	0.0908326	1.02977	1.00149e-05	0	0
